<svg width="131" height="156" viewBox="0 0 131 156" fill="none" xmlns="http://www.w3.org/2000/svg">
	<path
		d="M66.84 40.56C66.35 40.54 65.8601 40.53 65.3601 40.56C57.1201 40.96 50.74 47.98 51.14 56.22C51.44 62.39 55.46 67.52 60.92 69.54C62.69 70.17 64.6 70.47 66.59 70.38C74.82 69.99 81.19 62.97 80.79 54.75C80.42 47.09 74.32 41.05 66.84 40.57V40.56Z"
		fill="#ED1C24" />
	<path
		d="M65.18 0C29.24 0 0 29.24 0 65.18C0 74.42 2.57 83.35 2.87 84.34L2.91003 84.48C7.37003 98.72 15.74 107.43 23.12 115.11C34.6 127.06 46.57 138.85 58.67 150.17L64.9 156L71.3801 150.45C85.0801 138.72 97.83 126.39 109.28 113.79C116.59 105.74 123.49 97.44 127.47 84.44L127.5 84.35C127.79 83.36 130.36 74.39 130.36 65.2C130.36 29.26 101.12 0.02 65.18 0.02V0ZM65.43 130.32C65.43 130.32 65.43 130.32 65.42 130.31H65.44C65.44 130.31 65.44 130.31 65.43 130.32ZM88.0001 89.45C86.2201 92.24 83.1101 94.12 80.2401 95.59C80.1801 95.62 80.13 95.65 80.07 95.68C75.77 97.83 71.42 98.64 66.08 98.64C60.74 98.64 56.39 97.83 52.09 95.68C52.03 95.65 51.98 95.62 51.92 95.59C51.18 95.21 50.44 94.8 49.7 94.37C47.49 93.08 45.35 91.48 43.99 89.35C42.61 87.18 41.44 83.66 43.3 81.42C44.04 80.52 45.12 80.68 46.03 81.16C46.37 81.32 46.7001 81.52 46.9901 81.75C48.34 82.8 49.7 83.82 51.16 84.72C51.87 85.16 52.6 85.58 53.34 85.96C55.57 87.1 57.93 87.96 60.4 88.38C63.62 88.93 68.12 88.93 71.34 88.38C74.71 87.81 77.88 86.42 80.77 84.62C82.22 83.72 83.58 82.7 84.93 81.65C85.73 81.03 86.84 80.53 87.7599 80.9C88.0999 80.98 88.42 81.16 88.69 81.49C90.55 83.73 89.3801 87.26 88.0001 89.43V89.45ZM91.98 38.75C90.92 39.81 88.7801 40.86 86.6201 41.73C89.0501 45.35 90.56 49.65 90.79 54.31C91.44 67.93 80.89 79.55 67.27 80.2C63.8 80.37 60.46 79.8 57.4 78.65C48.35 75.33 41.7 66.85 41.2 56.64C40.55 43.04 51.08 31.44 64.68 30.79C65.33 30.76 65.9701 30.78 66.6201 30.79C72.6701 30.92 78.24 33.24 82.5099 37.03C83.34 35.07 84.2901 33.2 85.2501 32.25C86.3801 31.12 88.1101 30.33 89.7501 30.43C90.7901 30.43 91.8101 30.77 92.6301 31.6C94.7101 33.68 93.76 36.96 91.97 38.75H91.98Z"
		fill="#ED1C24" />
</svg>