<?xml version="1.0" standalone="no"?>
<!DOCTYPE svg PUBLIC "-//W3C//DTD SVG 20010904//EN"
 "http://www.w3.org/TR/2001/REC-SVG-20010904/DTD/svg10.dtd">
<svg version="1.0" xmlns="http://www.w3.org/2000/svg"
 width="624.000000pt" height="624.000000pt" viewBox="0 0 624.000000 624.000000"
 preserveAspectRatio="xMidYMid meet">
<metadata>
Created by potrace 1.14, written by Peter Selinger 2001-2017
</metadata>
<g transform="translate(0.000000,624.000000) scale(0.100000,-0.100000)"
fill="#000000" stroke="none">
<path d="M2875 6229 c-615 -63 -1147 -309 -1579 -729 -229 -223 -382 -433
-521 -715 -99 -200 -144 -318 -190 -500 -110 -427 -109 -851 1 -1304 84 -343
267 -692 526 -1001 212 -252 1047 -1097 1603 -1620 143 -135 287 -271 321
-302 l60 -58 244 211 c778 672 1532 1431 1862 1876 288 388 447 809 499 1317
22 223 4 540 -46 776 -100 475 -357 945 -709 1295 -401 398 -905 651 -1462
735 -160 24 -469 34 -609 19z m1306 -1233 c45 -31 69 -80 69 -143 -1 -102 -61
-177 -194 -242 l-83 -41 53 -107 c81 -165 99 -243 99 -443 0 -141 -3 -177 -23
-250 -84 -311 -323 -572 -620 -680 -548 -198 -1150 116 -1304 681 -20 72 -23
108 -23 254 0 148 3 180 23 250 52 179 139 325 272 455 127 125 264 202 448
252 62 17 107 21 232 22 172 0 267 -17 400 -73 71 -31 219 -120 240 -146 21
-26 34 -17 62 43 63 135 138 192 253 192 48 0 68 -5 96 -24z m-1810 -2023
c238 -164 280 -187 417 -233 202 -67 492 -67 694 0 137 46 179 69 417 233 62
44 98 47 139 12 84 -71 54 -248 -65 -384 -90 -103 -306 -222 -481 -267 -251
-64 -579 -51 -796 30 -225 85 -392 210 -460 347 -56 112 -57 219 -1 275 34 34
73 31 136 -13z"/>
<path d="M3043 4610 c-211 -38 -395 -195 -465 -398 -19 -56 -23 -87 -23 -192
0 -105 4 -136 23 -192 45 -129 141 -246 264 -321 86 -52 146 -69 264 -74 126
-6 191 7 297 60 92 46 194 139 242 221 72 123 99 273 75 413 -34 207 -205 400
-408 463 -75 23 -198 32 -269 20z"/>
</g>
</svg>
