<svg width="18" height="18" viewBox="0 0 18 18" fill="none" xmlns="http://www.w3.org/2000/svg">
	<path fill-rule="evenodd" clip-rule="evenodd"
		d="M1.5 9C1.5 4.8645 4.8645 1.5 9 1.5C13.1355 1.5 16.5 4.8645 16.5 9C16.5 13.1355 13.1355 16.5 9 16.5C4.8645 16.5 1.5 13.1355 1.5 9ZM9 15C5.69175 15 3 12.3082 3 9C3 5.69175 5.69175 3 9 3C12.3082 3 15 5.69175 15 9C15 12.3082 12.3082 15 9 15ZM5.25 9C5.25 6.93225 6.93225 5.25 9 5.25C11.0677 5.25 12.75 6.93225 12.75 9C12.75 11.0677 11.0677 12.75 9 12.75C6.93225 12.75 5.25 11.0677 5.25 9ZM6.75 9C6.75 10.2405 7.7595 11.25 9 11.25C10.2405 11.25 11.25 10.2405 11.25 9C11.25 7.7595 10.2405 6.75 9 6.75C7.7595 6.75 6.75 7.7595 6.75 9Z"
		fill="#828282" />
	<mask id="mask0_2693_17615" style="mask-type:luminance" maskUnits="userSpaceOnUse" x="1" y="1" width="16"
		height="16">
		<path fill-rule="evenodd" clip-rule="evenodd"
			d="M1.5 9C1.5 4.8645 4.8645 1.5 9 1.5C13.1355 1.5 16.5 4.8645 16.5 9C16.5 13.1355 13.1355 16.5 9 16.5C4.8645 16.5 1.5 13.1355 1.5 9ZM9 15C5.69175 15 3 12.3082 3 9C3 5.69175 5.69175 3 9 3C12.3082 3 15 5.69175 15 9C15 12.3082 12.3082 15 9 15ZM5.25 9C5.25 6.93225 6.93225 5.25 9 5.25C11.0677 5.25 12.75 6.93225 12.75 9C12.75 11.0677 11.0677 12.75 9 12.75C6.93225 12.75 5.25 11.0677 5.25 9ZM6.75 9C6.75 10.2405 7.7595 11.25 9 11.25C10.2405 11.25 11.25 10.2405 11.25 9C11.25 7.7595 10.2405 6.75 9 6.75C7.7595 6.75 6.75 7.7595 6.75 9Z"
			fill="white" />
	</mask>
	<g mask="url(#mask0_2693_17615)">
	</g>
</svg>