<svg class="svg-icon" style="width: 1em;height: 1em;vertical-align: middle;fill: currentColor;overflow: hidden;"
	viewBox="0 0 1024 1024" version="1.1" xmlns="http://www.w3.org/2000/svg">
	<path
		d="M748.926255 464.944205V262.632461L551.736968 152.517709 354.540457 262.632461v202.311744l194.624446 97.319448 199.761352-97.319448zM707.10129 336.138628v119.405977L576.496712 516.652838V413.235571l126.356335-75.507464-1.16321 0.433494 5.411453-2.969436-4.248243 2.550391 4.248243-1.603928zM538.93444 208.857506l171.591454 79.380013-158.788926 97.326673-158.788925-97.326673 145.986397-79.380013z"
		fill="#828282" />
	<path
		d="M748.926255 470.066661L551.736968 580.188638 354.540457 470.066661 157.35117 580.188638v202.311743l194.631671 97.326673 199.746902-97.326673 194.624447 97.326673 199.739677-97.326673V580.188638l-197.167612-110.121977zM509.912003 653.709254v119.391528l-130.611803 61.115457v-103.410041L505.670985 655.298733l-1.170435 0.426269 5.411453-2.96221-4.241018 2.550391 4.241018-1.603929z m-155.371546 49.411114l-158.781701-97.319448 145.964722-79.380013 171.58423 79.380013-158.767251 97.319448z m549.75012-49.411114v119.391528l-130.604578 61.115457v-103.410041l126.363559-75.507465-1.170434 0.426269 5.411453-2.96221-4.241019 2.550391 4.241019-1.603929z m-155.364322 49.411114l-158.788925-97.319448 145.979172-79.380013 171.577004 79.380013-158.767251 97.319448z"
		fill="#828282" />
</svg>