<svg width="15" height="13" viewBox="0 0 15 13" fill="none" xmlns="http://www.w3.org/2000/svg">
	<path
		d="M4.3424 12.6175H3.18142V10.8164C3.18142 10.784 3.16856 10.753 3.14566 10.73C3.12277 10.7071 3.09172 10.6942 3.05934 10.6942H1.59804C1.56495 10.6942 1.5331 10.7068 1.50903 10.7296C1.48497 10.7523 1.47051 10.7834 1.46864 10.8164V12.6175H1.26232V12.9951H13.7389V12.6175H13.5326V10.8164C13.5307 10.7834 13.5163 10.7523 13.4922 10.7296C13.4681 10.7068 13.4363 10.6942 13.4032 10.6942H11.948C11.9314 10.6934 11.9149 10.696 11.8994 10.7017C11.8839 10.7075 11.8697 10.7164 11.8577 10.7278C11.8457 10.7392 11.8362 10.753 11.8296 10.7682C11.8231 10.7835 11.8198 10.7999 11.8198 10.8164V12.6175H9.08765V10.0711C9.08782 10.048 9.08337 10.0252 9.07456 10.0039C9.06576 9.98262 9.05278 9.96331 9.03639 9.94713C9.01999 9.93096 9.00053 9.91823 8.97914 9.90972C8.95775 9.9012 8.93487 9.89707 8.91186 9.89756H6.07349C6.02784 9.89756 5.98406 9.91571 5.95178 9.94802C5.9195 9.98033 5.90136 10.0242 5.90136 10.0698V12.6163H3.96639V4.01648H0.366255V12.6175H1.26843V12.9951H0.172147C0.126495 12.9951 0.0827123 12.977 0.0504311 12.9446C0.01815 12.9123 1.45927e-05 12.8685 1.45927e-05 12.8228V3.91018C-0.000348521 3.87693 0.00606847 3.84397 0.018873 3.81329C0.0316774 3.78262 0.0506002 3.75488 0.0744834 3.73178C0.0975267 3.70824 0.125087 3.68962 0.155507 3.67702C0.185928 3.66442 0.21858 3.65811 0.251499 3.65846H3.96639V0.274981C3.97308 0.204685 4.00419 0.138962 4.05429 0.08925C4.08277 0.0603247 4.11682 0.0375004 4.15439 0.0221658C4.19196 0.0068311 4.23225 -0.000693355 4.27281 5.01925e-05H10.7223C10.7618 -0.000237441 10.8009 0.00739989 10.8374 0.0225108C10.8739 0.0376218 10.907 0.0598997 10.9347 0.0880281L10.9482 0.102691C10.9974 0.157362 11.0248 0.228267 11.0251 0.301863V3.65602H14.7485C14.7814 3.65566 14.8141 3.66197 14.8445 3.67457C14.8749 3.68717 14.9025 3.7058 14.9255 3.72933C14.9494 3.75244 14.9683 3.78017 14.9811 3.81085C14.9939 3.84152 15.0003 3.87449 15 3.90773V12.8277C15 12.8734 14.9819 12.9172 14.9496 12.9495C14.9173 12.9818 14.8735 13 14.8279 13H13.7377V12.6224H14.6398V4.01648H11.0238V12.6175H10.6466V0.3764H4.3424V12.6175ZM2.00579 4.76552H1.07554C1.06821 4.76552 1.06089 4.77529 1.06089 4.78751V5.39114C1.06089 5.40336 1.06821 5.41435 1.07554 5.41435H2.00579C2.01311 5.41435 2.02044 5.40458 2.02044 5.39114V4.7814C2.02044 4.76918 2.01311 4.75941 2.00579 4.75941V4.76552ZM2.00579 8.95302H1.07554C1.06821 8.95302 1.06089 8.96402 1.06089 8.97501V9.57864C1.06089 9.58964 1.06821 9.60186 1.07554 9.60186H2.00579C2.01311 9.60186 2.02044 9.59086 2.02044 9.57864V8.9689C2.02044 8.95791 2.01311 8.94691 2.00579 8.94691V8.95302ZM3.57574 8.95302H2.64549C2.63694 8.95302 2.63084 8.96402 2.63084 8.97501V9.57864C2.63084 9.58964 2.63694 9.60186 2.64549 9.60186H3.57574C3.58306 9.60186 3.58917 9.59086 3.58917 9.57864V8.9689C3.58917 8.95791 3.58917 8.94691 3.57574 8.94691V8.95302ZM2.00579 7.55026H1.07554C1.06821 7.55026 1.06089 7.56126 1.06089 7.57348V8.1771C1.06089 8.18932 1.06821 8.20032 1.07554 8.20032H2.00579C2.01311 8.20032 2.02044 8.19054 2.02044 8.1771V7.57592C2.02044 7.56248 2.01311 7.5527 2.00579 7.5527V7.55026ZM2.00579 6.15483H1.07554C1.06821 6.15483 1.06089 6.16461 1.06089 6.17805V6.78168C1.06089 6.79267 1.06821 6.80489 1.07554 6.80489H2.00579C2.01311 6.80489 2.02044 6.7939 2.02044 6.78168V6.17805C2.02044 6.16461 2.01311 6.15483 2.00579 6.15483ZM3.57574 4.76552H2.64549C2.63694 4.76552 2.63084 4.77529 2.63084 4.78751V5.39114C2.63084 5.40336 2.63694 5.41435 2.64549 5.41435H3.57574C3.58306 5.41435 3.58917 5.40458 3.58917 5.39114V4.7814C3.58917 4.76918 3.58917 4.75941 3.57574 4.75941V4.76552ZM3.57574 7.55637H2.64549C2.63694 7.55637 2.63084 7.56737 2.63084 7.57959V8.18321C2.63084 8.19543 2.63694 8.20643 2.64549 8.20643H3.57574C3.58306 8.20643 3.58917 8.19665 3.58917 8.18321V7.57592C3.58917 7.56248 3.58917 7.5527 3.57574 7.5527V7.55637ZM3.57574 6.16094H2.64549C2.63694 6.16094 2.63084 6.17072 2.63084 6.18416V6.78168C2.63084 6.79267 2.63694 6.80489 2.64549 6.80489H3.57574C3.58306 6.80489 3.58917 6.7939 3.58917 6.78168V6.17805C3.58917 6.16461 3.58917 6.15483 3.57574 6.15483V6.16094ZM12.9954 4.76552H13.9257C13.933 4.76552 13.9403 4.77529 13.9403 4.78751V5.39114C13.9403 5.40336 13.933 5.41435 13.9257 5.41435H12.9954C12.9881 5.41435 12.9808 5.40458 12.9808 5.39114V4.7814C12.9808 4.76918 12.9881 4.75941 12.9954 4.75941V4.76552ZM12.9954 8.95302H13.9257C13.933 8.95302 13.9403 8.96402 13.9403 8.97501V9.57864C13.9403 9.58964 13.933 9.60186 13.9257 9.60186H12.9954C12.9881 9.60186 12.9808 9.59086 12.9808 9.57864V8.9689C12.9808 8.95791 12.9881 8.94691 12.9954 8.94691V8.95302ZM11.4255 8.95302H12.3557C12.3643 8.95302 12.3704 8.96402 12.3704 8.97501V9.57864C12.3704 9.58964 12.3704 9.60186 12.3557 9.60186H11.4255C11.4182 9.60186 11.4121 9.59086 11.4121 9.57864V8.9689C11.4121 8.95791 11.4121 8.94691 11.4255 8.94691V8.95302ZM12.9954 7.55637H13.9257C13.933 7.55637 13.9403 7.56737 13.9403 7.57959V8.18321C13.9403 8.19543 13.933 8.20643 13.9257 8.20643H12.9954C12.9881 8.20643 12.9808 8.19665 12.9808 8.18321V7.57592C12.9808 7.56248 12.9881 7.5527 12.9954 7.5527V7.55637ZM12.9954 6.16094H13.9257C13.933 6.16094 13.9403 6.17072 13.9403 6.18416V6.78168C13.9403 6.79267 13.933 6.80489 13.9257 6.80489H12.9954C12.9881 6.80489 12.9808 6.7939 12.9808 6.78168V6.17805C12.9808 6.16461 12.9881 6.15483 12.9954 6.15483V6.16094ZM11.4255 4.76552H12.3557C12.3643 4.76552 12.3704 4.77529 12.3704 4.78751V5.39114C12.3704 5.40336 12.3704 5.41435 12.3557 5.41435H11.4255C11.4182 5.41435 11.4121 5.40458 11.4121 5.39114V4.7814C11.4121 4.76918 11.4121 4.75941 11.4255 4.75941V4.76552ZM11.4255 7.55637H12.3557C12.3643 7.55637 12.3704 7.56737 12.3704 7.57959V8.18321C12.3704 8.19543 12.3704 8.20643 12.3557 8.20643H11.4255C11.4182 8.20643 11.4121 8.19665 11.4121 8.18321V7.57592C11.4121 7.56248 11.4121 7.5527 11.4255 7.5527V7.55637ZM11.4255 6.16094H12.3557C12.3643 6.16094 12.3704 6.17072 12.3704 6.18416V6.78168C12.3704 6.79267 12.3704 6.80489 12.3557 6.80489H11.4255C11.4182 6.80489 11.4121 6.7939 11.4121 6.78168V6.17805C11.4121 6.16461 11.4121 6.15483 11.4255 6.15483V6.16094ZM5.24945 1.32461H6.2615C6.26906 1.3246 6.27634 1.32752 6.2818 1.33276C6.28726 1.338 6.29048 1.34515 6.2908 1.35271V2.3669C6.29048 2.37446 6.28726 2.38161 6.2818 2.38685C6.27634 2.39209 6.26906 2.39501 6.2615 2.395H5.24945C5.24201 2.395 5.23487 2.39204 5.2296 2.38677C5.22433 2.3815 5.22138 2.37435 5.22138 2.3669V1.35271C5.22138 1.34526 5.22433 1.33811 5.2296 1.33284C5.23487 1.32757 5.24201 1.32461 5.24945 1.32461ZM8.72996 1.32461H9.742C9.74956 1.3246 9.75684 1.32752 9.7623 1.33276C9.76776 1.338 9.77098 1.34515 9.7713 1.35271V2.3669C9.77098 2.37446 9.76776 2.38161 9.7623 2.38685C9.75684 2.39209 9.74956 2.39501 9.742 2.395H8.72874C8.72117 2.39501 8.7139 2.39209 8.70844 2.38685C8.70298 2.38161 8.69975 2.37446 8.69944 2.3669V1.35271C8.69975 1.34515 8.70298 1.338 8.70844 1.33276C8.7139 1.32752 8.72117 1.3246 8.72874 1.32461H8.72996ZM6.9891 1.32461H8.00236C8.00981 1.32461 8.01695 1.32757 8.02221 1.33284C8.02748 1.33811 8.03044 1.34526 8.03044 1.35271V2.3669C8.03044 2.37435 8.02748 2.3815 8.02221 2.38677C8.01695 2.39204 8.00981 2.395 8.00236 2.395H6.9891C6.98174 2.3947 6.97478 2.39164 6.96957 2.38644C6.96437 2.38123 6.96132 2.37426 6.96102 2.3669V1.35271C6.96132 1.34535 6.96437 1.33838 6.96957 1.33317C6.97478 1.32796 6.98174 1.32491 6.9891 1.32461ZM5.24945 3.51916H6.2615C6.26927 3.51916 6.27672 3.52225 6.28222 3.52775C6.28771 3.53325 6.2908 3.54071 6.2908 3.54849V4.56146C6.2908 4.56531 6.29004 4.56912 6.28857 4.57268C6.28709 4.57624 6.28494 4.57947 6.28222 4.58219C6.2795 4.58492 6.27627 4.58708 6.27271 4.58855C6.26916 4.59003 6.26535 4.59078 6.2615 4.59078H5.24945C5.24566 4.59079 5.24191 4.59002 5.23842 4.58853C5.23493 4.58705 5.23178 4.58487 5.22916 4.58213C5.22653 4.57938 5.22449 4.57614 5.22315 4.57259C5.22182 4.56904 5.22121 4.56525 5.22138 4.56146V3.5436C5.22227 3.5368 5.22562 3.53056 5.23079 3.52606C5.23596 3.52156 5.2426 3.51911 5.24945 3.51916ZM8.72996 3.51916H9.742C9.74813 3.52012 9.7538 3.52301 9.75819 3.5274C9.76258 3.53179 9.76546 3.53747 9.76642 3.5436V4.55657C9.76642 4.56435 9.76333 4.57181 9.75783 4.57731C9.75234 4.58281 9.74489 4.5859 9.73712 4.5859H8.72874C8.72097 4.5859 8.71351 4.58281 8.70802 4.57731C8.70252 4.57181 8.69944 4.56435 8.69944 4.55657V3.5436C8.69944 3.53583 8.70252 3.52837 8.70802 3.52287C8.71351 3.51737 8.72097 3.51428 8.72874 3.51428L8.72996 3.51916ZM6.9891 3.51916H8.00236C8.00615 3.51916 8.00991 3.51993 8.01339 3.52141C8.01688 3.5229 8.02003 3.52508 8.02266 3.52782C8.02528 3.53056 8.02732 3.53381 8.02866 3.53736C8.03 3.54091 8.0306 3.5447 8.03044 3.54849V4.56146C8.0306 4.56525 8.03 4.56904 8.02866 4.57259C8.02732 4.57614 8.02528 4.57938 8.02266 4.58213C8.02003 4.58487 8.01688 4.58705 8.01339 4.58853C8.00991 4.59002 8.00615 4.59079 8.00236 4.59078H6.9891C6.98154 4.59047 6.9744 4.58724 6.96916 4.58177C6.96393 4.57631 6.96101 4.56903 6.96102 4.56146V3.5436C6.96101 3.53603 6.96393 3.52875 6.96916 3.52329C6.9744 3.51782 6.98154 3.51459 6.9891 3.51428V3.51916ZM5.24945 7.9095H6.2615C6.26927 7.9095 6.27672 7.91259 6.28222 7.91809C6.28771 7.92359 6.2908 7.93105 6.2908 7.93883V8.9518C6.2908 8.95957 6.28771 8.96703 6.28222 8.97253C6.27672 8.97803 6.26927 8.98112 6.2615 8.98112H5.24945C5.24566 8.98113 5.24191 8.98036 5.23842 8.97887C5.23493 8.97739 5.23178 8.9752 5.22916 8.97246C5.22653 8.96972 5.22449 8.96648 5.22315 8.96293C5.22182 8.95938 5.22121 8.95559 5.22138 8.9518V7.9425C5.22121 7.9387 5.22182 7.93492 5.22315 7.93136C5.22449 7.92781 5.22653 7.92457 5.22916 7.92183C5.23178 7.91909 5.23493 7.91691 5.23842 7.91542C5.24191 7.91393 5.24566 7.91317 5.24945 7.91317V7.9095ZM8.72996 7.9095H9.742C9.74957 7.91071 9.75637 7.91484 9.76094 7.92101C9.7655 7.92718 9.76747 7.93489 9.76642 7.9425V8.95546C9.76642 8.96324 9.76333 8.9707 9.75783 8.9762C9.75234 8.9817 9.74489 8.98479 9.73712 8.98479H8.72874C8.72097 8.98479 8.71351 8.9817 8.70802 8.9762C8.70252 8.9707 8.69944 8.96324 8.69944 8.95546V7.9425C8.69944 7.93472 8.70252 7.92726 8.70802 7.92176C8.71351 7.91626 8.72097 7.91317 8.72874 7.91317L8.72996 7.9095ZM6.9891 7.9095H8.00236C8.00615 7.9095 8.00991 7.91027 8.01339 7.91175C8.01688 7.91324 8.02003 7.91542 8.02266 7.91816C8.02528 7.9209 8.02732 7.92415 8.02866 7.9277C8.03 7.93125 8.0306 7.93504 8.03044 7.93883V8.9518C8.0306 8.95559 8.03 8.95938 8.02866 8.96293C8.02732 8.96648 8.02528 8.96972 8.02266 8.97246C8.02003 8.9752 8.01688 8.97739 8.01339 8.97887C8.00991 8.98036 8.00615 8.98113 8.00236 8.98112H6.9891C6.98154 8.98081 6.9744 8.97758 6.96916 8.97211C6.96393 8.96665 6.96101 8.95937 6.96102 8.9518V7.9425C6.96101 7.93493 6.96393 7.92765 6.96916 7.92218C6.9744 7.91671 6.98154 7.91349 6.9891 7.91317V7.9095ZM5.24945 5.71495H6.2615C6.26906 5.71494 6.27634 5.71786 6.2818 5.7231C6.28726 5.72834 6.29048 5.73549 6.2908 5.74305V6.75724C6.2908 6.76103 6.29004 6.76479 6.28855 6.76828C6.28706 6.77178 6.28488 6.77493 6.28215 6.77756C6.27941 6.78018 6.27617 6.78223 6.27262 6.78356C6.26907 6.7849 6.26529 6.78551 6.2615 6.78534H5.24945C5.24201 6.78534 5.23487 6.78238 5.2296 6.77711C5.22433 6.77184 5.22138 6.76469 5.22138 6.75724V5.74305C5.22138 5.7356 5.22433 5.72845 5.2296 5.72318C5.23487 5.71791 5.24201 5.71495 5.24945 5.71495ZM8.72996 5.71495H9.742C9.74869 5.71607 9.75478 5.71949 9.75924 5.72462C9.76369 5.72975 9.76623 5.73626 9.76642 5.74305V6.75724C9.76642 6.76103 9.76566 6.76479 9.76417 6.76828C9.76268 6.77178 9.7605 6.77493 9.75776 6.77756C9.75503 6.78018 9.75179 6.78223 9.74824 6.78356C9.74469 6.7849 9.74091 6.78551 9.73712 6.78534H8.72874C8.72495 6.78551 8.72116 6.7849 8.71762 6.78356C8.71407 6.78223 8.71083 6.78018 8.70809 6.77756C8.70535 6.77493 8.70317 6.77178 8.70168 6.76828C8.7002 6.76479 8.69943 6.76103 8.69944 6.75724V5.74305C8.69975 5.73549 8.70298 5.72834 8.70844 5.7231C8.7139 5.71786 8.72117 5.71494 8.72874 5.71495H8.72996ZM6.9891 5.71495H8.00236C8.00981 5.71495 8.01695 5.71791 8.02221 5.72318C8.02748 5.72845 8.03044 5.7356 8.03044 5.74305V6.75724C8.03044 6.76469 8.02748 6.77184 8.02221 6.77711C8.01695 6.78238 8.00981 6.78534 8.00236 6.78534H6.9891C6.98521 6.78568 6.98129 6.78521 6.9776 6.78395C6.97391 6.78269 6.97051 6.78067 6.96764 6.77803C6.96477 6.77538 6.96248 6.77217 6.96092 6.76859C6.95936 6.76501 6.95856 6.76114 6.95858 6.75724V5.74305C6.95888 5.73569 6.96193 5.72872 6.96713 5.72351C6.97233 5.7183 6.9793 5.71525 6.98665 5.71495H6.9891Z"
		fill="#4F4F4F" />
</svg>