<svg xmlns="http://www.w3.org/2000/svg" fill="none" viewBox="29.92 8.81 90.08 14.12">
	<path
		d="M93.544 8.9541C90.7614 8.9541 88.4961 11.2194 88.4961 14.002C88.4961 16.7847 90.7614 19.05 93.544 19.05C94.6918 19.05 95.7487 18.66 96.5974 18.0133V18.8257H98.592V14.0041C98.592 11.2214 96.3267 8.95612 93.544 8.95612V8.9541ZM93.544 17.0555C91.8607 17.0555 90.4906 15.6854 90.4906 14.002C90.4906 12.3187 91.8607 10.9486 93.544 10.9486C95.2274 10.9486 96.5974 12.3187 96.5974 14.002C96.5974 15.6854 95.2274 17.0555 93.544 17.0555Z"
		fill="#ED1C24"></path>
	<path
		d="M83.2406 8.95215C82.0725 8.95215 81.0217 9.46139 80.2922 10.2657C79.5627 9.46139 78.5119 8.95215 77.3439 8.95215C75.1473 8.95215 73.3589 10.7405 73.3589 12.9371V18.8217H75.4322V12.9371C75.4322 11.8823 76.289 11.0255 77.3439 11.0255C78.3987 11.0255 79.2556 11.8823 79.2556 12.9371V18.8217H81.3289V12.9371C81.3289 11.8823 82.1857 11.0255 83.2406 11.0255C84.2954 11.0255 85.1522 11.8823 85.1522 12.9371V18.8217H87.2256V12.9371C87.2256 10.7405 85.4372 8.95215 83.2406 8.95215Z"
		fill="#ED1C24"></path>
	<path
		d="M34.9775 10.9527C35.3917 10.9527 35.7919 11.0375 36.1617 11.1931C36.78 11.4558 37.3054 11.9206 37.6409 12.5269L37.6469 12.5228C37.6469 12.5228 37.651 12.5289 37.653 12.5329L39.401 11.565C38.5098 9.95439 36.8144 8.9541 34.9755 8.9541C34.9755 8.9541 34.9734 8.9541 34.9714 8.9541H34.9674C32.1847 8.9541 29.9194 11.2194 29.9194 14.002C29.9194 14.002 29.9194 14.0041 29.9194 14.0061C29.9194 14.0081 29.9194 14.0081 29.9194 14.0101C29.9194 16.7988 32.1868 19.0661 34.9755 19.0661C36.7436 19.0661 38.4068 18.1184 39.3161 16.5947L39.2999 16.5846C39.2999 16.5846 39.2999 16.5846 39.2999 16.5826L37.5863 15.5601C37.0286 16.4957 36.0485 17.0534 34.9653 17.0534C33.6013 17.0534 32.4434 16.1542 32.0534 14.9175C31.9645 14.6305 31.916 14.3254 31.916 14.0101C31.916 12.3248 33.2881 10.9527 34.9734 10.9527H34.9775Z"
		fill="#ED1C24"></path>
	<path
		d="M44.9135 8.9541C44.9135 8.9541 44.9054 8.9541 44.9034 8.9541C44.8993 8.9541 44.8953 8.9541 44.8892 8.9541C42.1066 8.9541 39.8413 11.2194 39.8413 14.002C39.8413 15.5762 40.5648 16.9827 41.6964 17.9082C42.5714 18.6317 43.6929 19.0661 44.9135 19.0661C47.7022 19.0661 49.9695 16.7988 49.9695 14.0101C49.9695 11.2214 47.7022 8.9541 44.9135 8.9541ZM41.856 14.0101C41.856 12.3248 43.2282 10.9527 44.9135 10.9527C45.0166 10.9527 45.1196 10.9587 45.2227 10.9688C46.7504 11.1345 47.9427 12.4319 47.9427 14.002C47.9427 15.6854 46.5726 17.0555 44.8892 17.0555C44.3659 17.0555 43.8728 16.9221 43.4403 16.6897C42.4966 16.1683 41.856 15.164 41.856 14.0121V14.0101Z"
		fill="#ED1C24"></path>
	<path
		d="M67.0046 8.9541C67.0046 8.9541 66.9844 8.9541 66.9763 8.9541C66.9662 8.9541 66.9561 8.9541 66.9439 8.9541C64.1613 8.9541 61.896 11.2194 61.896 14.002C61.896 16.2795 63.4136 18.2093 65.491 18.8337C65.9699 18.9833 66.4771 19.0661 67.0046 19.0661C69.7932 19.0661 72.0606 16.7988 72.0606 14.0101C72.0606 11.2214 69.7932 8.9541 67.0046 8.9541ZM63.9471 14.0101C63.9471 12.3248 65.3192 10.9527 67.0046 10.9527C67.0894 10.9527 67.1743 10.9587 67.2592 10.9648C68.795 11.1224 69.9974 12.4238 69.9974 14.002C69.9974 15.6854 68.6273 17.0555 66.9439 17.0555C66.7398 17.0555 66.5418 17.0352 66.3498 16.9968C64.9777 16.6958 63.9471 15.4732 63.9471 14.0121V14.0101Z"
		fill="#ED1C24"></path>
	<path
		d="M60.8117 8.86889C60.4742 8.84868 60.1206 9.01035 59.8882 9.24274C59.6922 9.43875 59.4962 9.8227 59.3264 10.2228C58.4514 9.44482 57.3117 8.96993 56.0709 8.94366C55.9396 8.93962 55.8082 8.93558 55.6749 8.94366C52.8862 9.07703 50.728 11.4535 50.8613 14.2422C50.9624 16.3357 52.3264 18.0736 54.1815 18.7546C54.81 18.991 55.493 19.1062 56.2043 19.0739C58.997 18.9405 61.1593 16.56 61.0259 13.7673C60.9794 12.8115 60.6703 11.9304 60.1711 11.1888C60.6137 11.0089 61.0522 10.7947 61.2704 10.5765C61.6382 10.2087 61.8302 9.53777 61.4058 9.11139C61.2361 8.94164 61.0279 8.87293 60.8157 8.87293L60.8117 8.86889ZM52.8963 14.1533C52.8154 12.4639 54.1229 11.0251 55.8123 10.9442C55.9153 10.9402 56.0164 10.9402 56.1154 10.9442C57.6471 11.0433 58.898 12.282 58.9748 13.8501C59.0556 15.5355 57.7502 16.9743 56.0649 17.0551C55.6567 17.0753 55.2646 17.0127 54.9029 16.8833C53.7834 16.4691 52.9589 15.4183 52.8983 14.1533H52.8963Z"
		fill="#ED1C24"></path>
	<path
		d="M60.4033 19.2152C60.2153 19.1384 59.987 19.2414 59.8233 19.3688C59.5465 19.583 59.2676 19.7931 58.9705 19.977C58.3784 20.3448 57.7278 20.6297 57.0366 20.7469C56.3779 20.8581 55.4544 20.8581 54.7956 20.7469C54.2884 20.66 53.8034 20.4842 53.3487 20.2498C53.1971 20.171 53.0476 20.0861 52.9021 19.9952C52.603 19.8093 52.3242 19.6011 52.0473 19.3849C51.9887 19.3384 51.922 19.298 51.8513 19.2657C51.6634 19.1687 51.4431 19.1343 51.2915 19.3182C50.9116 19.777 51.1501 20.4984 51.433 20.943C51.7119 21.3794 52.1504 21.7068 52.603 21.9715C52.7546 22.0625 52.9082 22.1453 53.0597 22.2221C53.0719 22.2282 53.082 22.2342 53.0941 22.2403C53.9751 22.6808 54.8663 22.8465 55.9616 22.8465C57.0568 22.8465 57.948 22.6808 58.8291 22.2403C58.8412 22.2342 58.8513 22.2282 58.8634 22.2221C59.4515 21.919 60.0901 21.535 60.4538 20.9632C60.7367 20.5186 60.9772 19.7951 60.5953 19.3344C60.5387 19.2657 60.474 19.2313 60.4033 19.2132V19.2152Z"
		fill="#ED1C24"></path>
	<path
		d="M105.38 8.84473C102.565 8.84473 100.261 11.0656 100.122 13.8462H100.116V22.9276H102.114V18.2333C103.012 18.9467 104.147 19.373 105.38 19.373C108.282 19.373 110.644 17.0107 110.644 14.1089C110.644 11.207 108.282 8.84473 105.38 8.84473ZM105.38 17.2916C103.624 17.2916 102.197 15.8629 102.197 14.1089C102.197 12.3548 103.626 10.9261 105.38 10.9261C107.134 10.9261 108.563 12.3548 108.563 14.1089C108.563 15.8629 107.134 17.2916 105.38 17.2916Z"
		fill="#ED1C24"></path>
	<path
		d="M116.878 12.9026L116.69 12.842C115.755 12.5409 114.869 12.258 114.869 11.7629V11.7265C114.869 11.2658 115.302 10.9789 115.999 10.9789C116.731 10.9789 117.674 11.2981 118.59 11.8539L118.78 11.969L119.855 10.0432L119.689 9.93411C118.624 9.23087 117.266 8.81055 116.054 8.81055C113.922 8.81055 112.432 10.0978 112.432 11.9428V11.9791C112.432 14.107 114.479 14.685 115.575 14.9942L115.801 15.0629C116.747 15.3498 117.563 15.5964 117.563 16.1319V16.1682C117.563 16.9079 116.672 16.9887 116.29 16.9887C115.32 16.9887 114.253 16.5845 113.281 15.853L113.099 15.7156L111.887 17.5565L112.04 17.6778C113.233 18.6174 114.76 19.155 116.233 19.155C118.557 19.155 120 17.9203 120 15.9318V15.8954C120 13.8726 117.969 13.2401 116.878 12.9006V12.9026Z"
		fill="#ED1C24"></path>
</svg>