<svg width="141" height="212" viewBox="0 0 141 212" fill="none" xmlns="http://www.w3.org/2000/svg">
	<path
		d="M71.5672 45.3936C70.7772 45.3536 69.9872 45.3536 69.1872 45.3936C55.9072 46.0336 45.6272 57.3536 46.2672 70.6236C46.7472 80.5736 53.2272 88.8436 62.0272 92.0936C64.8772 93.1036 67.9572 93.5936 71.1672 93.4436C84.4272 92.8036 94.6872 81.5036 94.0572 68.2536C93.4672 55.9136 83.6273 46.1736 71.5773 45.4036L71.5672 45.3936Z"
		fill="#231F20" />
	<path
		d="M139.187 56.2036C136.557 43.3636 130.857 31.9436 121.657 22.5936C101.467 2.0536 77.0573 -5.0264 49.6373 3.6036C20.9673 12.6236 4.62725 33.3136 0.577252 63.1036C-1.41275 77.7636 1.82724 91.7336 8.98724 104.714C27.9272 139.014 46.8872 173.294 65.8972 207.544C66.6472 208.904 68.0673 209.894 69.1673 211.054H71.6373C72.7473 209.894 74.1573 208.894 74.9073 207.544C93.9573 173.234 112.977 138.904 131.907 104.524C140.257 89.3536 142.657 73.1636 139.177 56.2036H139.187ZM112.077 42.4636C110.377 44.1636 106.917 45.8636 103.437 47.2736C107.357 53.1036 109.787 60.0336 110.157 67.5536C111.207 89.5136 94.2073 108.234 72.2473 109.284C66.6573 109.554 61.2773 108.634 56.3473 106.784C41.7673 101.434 31.0373 87.7636 30.2472 71.3136C29.1973 49.3936 46.1673 30.7036 68.0973 29.6536C69.1473 29.6036 70.1873 29.6336 71.2173 29.6536C80.9773 29.8636 89.9473 33.5936 96.8173 39.7136C98.1473 36.5536 99.6872 33.5436 101.237 32.0036C103.067 30.1736 105.847 28.9136 108.497 29.0636C110.167 29.0636 111.807 29.6136 113.147 30.9436C116.497 34.2936 114.977 39.5736 112.087 42.4636H112.077Z"
		fill="#231F20" />
</svg>