<svg width="141" height="212" viewBox="0 0 141 212" fill="none" xmlns="http://www.w3.org/2000/svg">
	<path
		d="M71.5572 45.4034C70.7672 45.3634 69.9772 45.3634 69.1772 45.4034C55.8972 46.0434 45.6172 57.3634 46.2572 70.6334C46.7372 80.5834 53.2172 88.8534 62.0172 92.1034C64.8672 93.1134 67.9472 93.6034 71.1572 93.4534C84.4172 92.8134 94.6772 81.5134 94.0472 68.2634C93.4572 55.9234 83.6172 46.1834 71.5672 45.4134L71.5572 45.4034Z"
		fill="#ED1C24" />
	<path
		d="M139.187 56.2134C136.557 43.3734 130.857 31.9534 121.657 22.6034C101.467 2.05338 77.0472 -5.02662 49.6273 3.60338C20.9573 12.6334 4.61725 33.3234 0.577251 63.1034C-1.41275 77.7634 1.82725 91.7334 8.98725 104.713C27.9273 139.013 46.8873 173.293 65.8973 207.543C66.6473 208.903 68.0673 209.893 69.1673 211.053H71.6373C72.7473 209.893 74.1573 208.893 74.9073 207.543C93.9573 173.233 112.977 138.903 131.907 104.523C140.257 89.3534 142.657 73.1634 139.177 56.2034L139.187 56.2134ZM112.077 42.4734C110.377 44.1734 106.917 45.8734 103.437 47.2834C107.357 53.1134 109.787 60.0434 110.157 67.5634C111.207 89.5234 94.2073 108.243 72.2473 109.293C66.6573 109.563 61.2772 108.643 56.3472 106.793C41.7673 101.443 31.0373 87.7734 30.2473 71.3234C29.1973 49.4034 46.1673 30.7134 68.0973 29.6634C69.1473 29.6134 70.1873 29.6434 71.2173 29.6634C80.9773 29.8734 89.9473 33.6034 96.8173 39.7234C98.1473 36.5634 99.6872 33.5534 101.237 32.0134C103.067 30.1834 105.847 28.9234 108.497 29.0734C110.167 29.0734 111.807 29.6234 113.147 30.9534C116.497 34.3034 114.977 39.5834 112.087 42.4734H112.077Z"
		fill="#ED1C24" />
</svg>