<svg id="Layer_1" data-name="Layer 1" xmlns="http://www.w3.org/2000/svg" xmlns:xlink="http://www.w3.org/1999/xlink"
	viewBox="202.26 188.76 619.3 646.35">
	<defs>
		<style>
			.cls-1 {
				fill: #fff;
			}

			.cls-2 {
				fill: #212121;
			}

			.cls-3 {
				fill: url(#radial-gradient);
			}
		</style>
		<radialGradient id="radial-gradient" cx="474.08" cy="479.27" fx="401.15469976083097" fy="555.4831877530507"
			r="654.3" gradientUnits="userSpaceOnUse">
			<stop offset="0" stop-color="#e0e0e0;"></stop>
			<stop offset="0.55" stop-color="#bdbdbd"></stop>
			<stop offset="1" stop-color="#828282"></stop>
		</radialGradient>
	</defs>
	<title>Earth 05</title>
	<path class="cls-3"
		d="M425.54,206.82c1.69-.54,1.4-1,.85-1.31-1-.39-4.22,0-4.26.35.22.26.59.11.84.31-.09.43-1.18.63-1.28.52s0-.15,0-.26.05-.24-.25-.26a6.57,6.57,0,0,0-1.7.43,4.17,4.17,0,0,0-2.39,1.51C417.24,208.68,419.34,208.81,425.54,206.82Z">
	</path>
	<path class="cls-3"
		d="M405.74,208.83a40,40,0,0,0,6-.83c.65-.13,1.43-.6,2.06-.79s1.4-.26,2.08-.47c.36-.1.82-.26,1.17-.37-.07-.32-.17-.39-.47-.6-1.67-.74-5.44-.55-11.86.6.15.34.14.56-.06,1.17S404.25,208.78,405.74,208.83Z">
	</path>
	<path class="cls-3"
		d="M771.65,356.3a3.9,3.9,0,0,0,.2,2.32,22.22,22.22,0,0,0,1,2.34s.82.83,1.16.25c.46-.8-.39-4-1.66-6.27a7.34,7.34,0,0,0-.84-1.24c0,.1.06.22.08.32A4.41,4.41,0,0,1,771.65,356.3Z">
	</path>
	<path class="cls-3"
		d="M428.43,210.08c-.11-.29-1,0-2.37.58.33,0,.4.06.5.23s.45.33,1.64-.12c-.05-.05-.05-.05-.17-.09h0l-.08,0c.06-.33.76-.53.88-.39s-.09.41-.32.72c-.39.53-.83,1.13,1.08.6.93-.26,6.58-3.7,4.79-4.93a3.37,3.37,0,0,0-.38-.19,6.23,6.23,0,0,0-1.59-.26,11,11,0,0,0-2.45,1.27,11.93,11.93,0,0,1-2.72,1.27C427.48,209.28,428.87,209.32,428.43,210.08Z">
	</path>
	<path class="cls-3"
		d="M429.4,214.23a5.36,5.36,0,0,0-1.74-.1l-.14-.31c-2,1.11-2,5-5.18,4.41a1.81,1.81,0,0,1-.18-.67c-.48-.15-.59-.18-2.7.77,1.69-1.33,3.69-2.18,5.43-3.43-1-1.47-2-2.23-6.76-.29,1.12-.85,1.27-1,1.47-1.44-.31-.65-.23-.71.33-1.13-1.62.56-3.1,1.42-4.65,2.12.05.15.11.35.17.5-.26.48-.61.91-.87,1.39.05.14.1.33.15.46a3.79,3.79,0,0,0,1.82-.1c-2.48,1.54-2.31,2-2.07,2.58.65.25,1.74.68,4.62-.79a2.53,2.53,0,0,0-.44.53c.42.22.42.22,1.27,0l-.8.41c-1.28.77-1.28.77-2.75,2.82,1.15-.63,2.29.39,3.43,0,2.73-.92,4.14-3.48,6.31-5.09.23.32.23.32,1.1.86-1.05,2.67-5.24,1.91-5.7,5.23a1.47,1.47,0,0,0,.38.25c1.34.37,2.71-.23,4.06.09,2.49.59,4.57,2.21,7.06,2.81a11.37,11.37,0,0,0,2.46.25c5.34-.09,5.17-3.71,5.16-3.74-.36-1.46-3.83-1.37-5.9-1.33-4.2.1-5.8-.22-4.17-2.39,3.94,0,7.71,1.57,11.68,1.39a3.35,3.35,0,0,0-.79.9l.24.35c1.44,0,5-.14,6.45-2.26-.28-.16-.28-.16-1-.07,0-.11,0-.26-.05-.38a24.39,24.39,0,0,1,5.2-1.69,34.51,34.51,0,0,0,3.57-1l1.26-.51c1.16-.48,1.27-2,2.43-2.48,5.46-2.26,11.49-2.8,16.82-5.5.63-.31,1.45-.77,2.08-1.09a21.37,21.37,0,0,0-8.37-2.87c-3.8-.39-3.8-.39-8.51,1-1-.76-2.86-1.23-9.74.43.05.13.12.31.18.44-.57.75-1.41,1.3-1.76,2.23-.38-.1-.38-.1-.11-2.47-1.15-1.29-8.77,1.17-10.49,3.88,0,.11.07.25.1.37a4.33,4.33,0,0,0,.8-.07l-.42.2c-5.18,2.32-2,3.87-2,3.88,1.47.44,3.91-.37,5-.72l-1.24.84-.42.51a3.21,3.21,0,0,0,.92.59,3.57,3.57,0,0,1-1.44,1.39c1.26-1.34,0-1.52-.19-1.54a6.08,6.08,0,0,0-2.76.82l.31.15c-.8,1.86-8.36,1-8.58.12-.13-.54.64-2.19,1.52-1.84,1.33.53,1.33.53,3.67-.65-.42-.23-.93-.17-1.35-.41.29-.39.44-.49,1.33-.89l-.1.31a5,5,0,0,0,1.47-.68l-.35-.09c-.21-.71.46-1.27.36-2-1.45-.21-4.36,1.25-4.38,1.27C430.67,211.58,430.41,213.17,429.4,214.23Zm19.48.56c.54-.21.62,0,.65,0l-.14.1c-.9.62-1.28.81-1.24.61a1,1,0,0,1,.2-.34c-.93.67-1.94,1.45-1.57,1.54h.06a1.89,1.89,0,0,1-.73.27C445.78,216.85,447.85,215.2,448.88,214.79Z">
	</path>
	<path class="cls-3"
		d="M274,271c1.41-1.46,2.69-3,4.2-4.39a41.94,41.94,0,0,1,4.87-3.8c-.4-.35,0-.76-.05-1.13-.3-.39-1.74.81-1.75.82-4.79,4.78-7.27,7.57-7.39,8.31C273.87,270.83,273.85,271,274,271Z">
	</path>
	<path class="cls-3"
		d="M257.88,618.7A4.51,4.51,0,0,1,255.6,617l.17.58a10.59,10.59,0,0,1,.56,5.69c1.64,1.13,2.19.69,1.95-1.58C258.18,620.71,258,619.71,257.88,618.7Z">
	</path>
	<path class="cls-3"
		d="M600.59,203.23l-.54,0c.55.59,7.22,2.32,8.08,1.09-.14-.53-.45-1.76-4.08-1.91-3.14-.14-8.69-2.14-11.35-3.1-6.72-2.42-13.39-5-20.15-7.28-1.67-.57-2.56-.84-2.56-.84-1.41-.22-2.8-.42-4.21-.62l.21.1C578.57,196.26,579.81,196.66,600.59,203.23Z">
	</path>
	<path class="cls-3"
		d="M313.21,229.07c-.84.51-.84.51-5.36,3.42.23.06.23.06,5.64-3.15a7.69,7.69,0,0,0,1.55-1s0,0,0,0c-.95.16-1.53,1-2.46,1.24A4.13,4.13,0,0,1,313.21,229.07Z">
	</path>
	<path class="cls-3"
		d="M403.24,214.62c2.29,1,4.1,1.81,9.52-.12.55-.19,1.26-.48,1.8-.69-.79-1.74-.79-1.74,3.15-3.84a46.9,46.9,0,0,0-5.09.87c0,.4,0,.52-1.14,1.07-1.28.63-1.35.73-1.68,1.22-.27-.09-.27-.09-.66-.53a2.2,2.2,0,0,1,.39-1c.88-1.08,2-1.92,2.92-3l.19,0c.05.08.05.08,0,.27l.09.09a6.16,6.16,0,0,0,2.6-1,.36.36,0,0,0,0-.1c-.36-.06-.76.13-1.09-.14-1.1.23-2.07.83-3.19,1a.25.25,0,0,0,0-.09c-1.37-.53-7.75,1.35-8.47,1.57,0,0-1.24.8-1,1.25.12.21.56.31.92.39.67.15.89.21,1,.49,0,.1-.43.79-.69.62s-.06-.26-.13-.37c-.26-.05-.44-.09-2.31.72l.08.2c-.21.21-.21.21-.76.46A7.13,7.13,0,0,1,403.24,214.62Z">
	</path>
	<path class="cls-3"
		d="M603.34,198.8c-2.23-.67-4.46-1.31-6.71-1.91l1.12.37C599.66,197.82,599.77,197.85,603.34,198.8Z"></path>
	<path class="cls-3"
		d="M469.77,211a3.05,3.05,0,0,0-1.91,1.11l.2.43a9.09,9.09,0,0,1,1.94.22c0,.14,0,.34,0,.49-4.1,2.31-9.08,1.71-13.2,4,1.29.91,1.39,1.06,1.76,2-.13,0-.13,0-2.5,1.45,2,8.64,17.46,2.34,16.15,11.63a48.85,48.85,0,0,0,0,6,15.3,15.3,0,0,1-.35,3.65c4.47-.35,5.29.28,6.64,2.92-4-.94-4-.94-5-.86-.17.67-.17.67.28,2-.38.15-.38.15-1.63-.56-1.72,3.55.89,5.58,4.09,4.5a3.76,3.76,0,0,0,2.08-1.74c-1.14,0-1.52,0-1.71-1l.39-.24a4.75,4.75,0,0,1,2.23.94s0,4.1-.34,4.48c-5.9-2.08-8.18,8.12-6.86,12.41a8,8,0,0,0,2.92,3.47c1.38,11.14,5.82,18.49,24.44,23.11.28-1,.62-2.25.92-3.21,1.57-4.89,4-9.43,5.62-14.32.51-1.58,0-4,.81-5.5,1.19-2.27,4.6-2.71,6.23-2.92a7.63,7.63,0,0,0,3.88-1.17c.46-.34,1-.9,1.42-1.28,2.52-2.28,3.51-5.72,6-8,1.1-1,3.23-1.26,4.66-1.67,9.66-2.85,11.6-4.55,13.7-9.29-3.3.09-3.3.09-4.13-.9,1.59.39,3.2,0,4.8.11a14.62,14.62,0,0,0-6.1-6.11c.84-1.85-.89-3.18-1-4.85a1.47,1.47,0,0,1,1-.05c-.79-3.34-.79-3.34,1.05-5.79-2.24-1.94-2.39-1.88-3.59-1.41.08.69.08.69,2.21,2.27-2.08,0-2.08,0-2.44-.29,0-.45,0-.45-4.92-5.52l.26-.39c1.29.7,2.28,1.9,3.77,2.26-1.66-1.32-2-5-4.86-4.11-2.28-1.31-2.67-4-4.14-5.84-.26,1,.66,1.81.42,2.8-.72-1.25-2.21-1.85-2.73-3.25-.71-1.89-.3-3.9-.69-5.82,0-.14-.06-.32-.08-.45-6.14-1.32-5.34.42-4.92,1.36a3.43,3.43,0,0,0-1.26-.9c-.08.28-.18.65-.25.92a2.94,2.94,0,0,1-1.14-.47l.39-.21c-.19-.36-.43-.82-1.8-.85a3.78,3.78,0,0,0,1,.89c-.41.16-.41.16-3.12-1l.45-.28c-.06-.19-.15-.43-.22-.61a29.88,29.88,0,0,0-13-1.76c-4.89.6-9.29,3.37-14.35,3.19h0l-.48,0h-.08c-6.31-.29-12.26,4-12.92,4.43Zm48.66-4.33a.75.75,0,0,1,.26,0c.31,0,.44,0,.42-.06l.22.16c1.26.95,1.25,1,1.25,1.06s-.21-.05-.67-.27-1-.44-1.07-.37C518.5,207,518.23,206.74,518.43,206.7Zm-1.6.44c.08-.08.47.09.47.24s-.06.09-.1.12c.62.47.84.55,1,.38a.36.36,0,0,1,.42-.08c-1.13-.55-1.24-.63-1.25-.69.16-.06.33,0,.48-.05s.09-.13.06-.22l.16.14c.82.78,1.06,1.41.55,1.4a3.48,3.48,0,0,1-1.08-.41S516.69,207.28,516.83,207.14Z">
	</path>
	<path class="cls-3"
		d="M548.25,201.76c-.28.75,0,1.59-.41,2.32a15.35,15.35,0,0,0,2.69,1.1c-3.1-.33-3.1-.33-3.22-.32-.58.08-.75.68-1.19.95h0l6.86,2.67.86.18c.62.1,1.13-.36,1.73-.36.33,0,.81.07.81.07,2.21.48,4.23,1.57,6.43,2.07.86.2.86.2,5.48.63-8.64-4.29-9-4.86-9.07-5,.53-.09,2.31.43,6.14,1.78-.52-.59,1.07-.39,1.46-.84a6.24,6.24,0,0,0-3.45-1.52,37.19,37.19,0,0,1-9.09-1.56c.9-.16,2.6-.45,1.31-1.44a11.9,11.9,0,0,0-2.22-1.12A5.15,5.15,0,0,0,548.25,201.76Zm3.22.48c.1-.22.33-.09.48-.18v0s-.05-.08-.56-.2a13.12,13.12,0,0,1-1.29-.4s0,0,.63.09a3.92,3.92,0,0,0,.93.13s0,0-.21-.13l.48.16c1,.35,1,.46,1.06.54s-.3.09-.4.21.32.24,1.34.58A8.33,8.33,0,0,1,551.47,202.24Z">
	</path>
	<path class="cls-3"
		d="M544.86,189.75c-.29,0-.57.18-.85.24s-.46.12-.48.18l0,0h0c1.86.11,3.69.5,5.54.67-.31-.12-.36-.2-.21-.33s.07-.2-.25-.3a21.57,21.57,0,0,0-2.73-.39A4.58,4.58,0,0,0,544.86,189.75Z">
	</path>
	<path class="cls-3"
		d="M550.62,192.51a9.66,9.66,0,0,1-2.07-.18l.31,0c1.08.21,2.13.57,3.22.72a3.56,3.56,0,0,0,1.18-.07V193a6.87,6.87,0,0,0-2-.41C550.66,192.49,550.66,192.49,550.62,192.51Z">
	</path>
	<path class="cls-3"
		d="M542.76,190.44a4.07,4.07,0,0,1-1-.05s0,0,0-.07c-.18-.08-.28-.12-2.29-.23l.68.14c1.67.38,3.29.93,5,1.29.05,0,5.17,1,5.66,1s.44-.07.52-.15c-.17-.18-.56-.29-2.08-.34l.07,0c-.09-.32-.51-.18-.62-.47a3,3,0,0,1,1.25.06.17.17,0,0,1,0,.07.47.47,0,0,0-.1.1,4.85,4.85,0,0,0,2.5.23c-.47-.5-1.24-.31-1.71-.79a5.83,5.83,0,0,1,1.78.18c-.19-.05-.2-.07-.25-.13a.78.78,0,0,0,0-.14c-.09-.09-.15-.15-1.08-.28l-.34,0,0,.06c-1,.25-6.83-.26-8-.46A.19.19,0,0,0,542.76,190.44Z">
	</path>
	<path class="cls-3"
		d="M545.22,189.49c.21,0,.21,0,.28,0a0,0,0,0,1,0,0,5.08,5.08,0,0,0-1,0,7.63,7.63,0,0,0,2.34.05c-.07-.08-.24-.15-1.14-.37a5.31,5.31,0,0,1-1.08-.31,10.11,10.11,0,0,0-2.83,0,.33.33,0,0,0,.11.09A14.91,14.91,0,0,0,545.22,189.49Z">
	</path>
	<path class="cls-3"
		d="M622.16,212.4c0-.15-.34-.36-1.27-.92a5.41,5.41,0,0,1-1.3-.89h0c-2.93-1.08-3.84-1.06-3.72-.8l0,.07C616.69,210.6,621.89,212.72,622.16,212.4Z">
	</path>
	<path class="cls-3"
		d="M432.89,216c1.56-.29,1.93-.36,2.19-.1l0,0c.73-.46,2.24-1.42,1.67-1.59h-.06a6.47,6.47,0,0,0-1.66.22A17.14,17.14,0,0,0,432.89,216Z">
	</path>
	<path class="cls-3"
		d="M554,195a2.1,2.1,0,0,0-1.57-1.26c-.1.13-.1.13-1,0,0-.12,0-.36-1.89-.74a4.66,4.66,0,0,0-.63-.12l-3.12-.09h0c1.58.27,3.1.8,4.68,1.1a5.25,5.25,0,0,0-2.08,0,.07.07,0,0,1,0,0,9.6,9.6,0,0,0,3.88,1.17.13.13,0,0,1,0-.06c-.3-.26-.72-.28-1.06-.49C551.32,194.49,551.4,194.46,554,195Z">
	</path>
	<path class="cls-3"
		d="M820.06,474.88l-.09-.82c-3.62-31.46-16.27-56.81-27.85-78.11.18.1,18.94,18.73,26.45,67.29-.5-3.56-1-7.24-1.45-10.3-7.14-34.09-7.27-34.74-13.53-53-3.49-8.93-8-20.91-11.92-29.66l-.42-.9c-2.69-5.75-6.61-13.25-9.5-18.9-16.88-28.41-17.54-29.52-29.56-45.16l-.5-.58c1.57,2,3.24,4.13,5,6.54l9.11,12.91.11.18c-4.08-5.13-7.45-10.78-11.66-15.82L739,292.22a27.56,27.56,0,0,1-3.9-4.91l.19-.08a67.83,67.83,0,0,1,8.84,8.52c-13.19-15.63-16-18.51-28.92-30.61-18.58-16-33.26-28.59-61.08-44.61a245.48,245.48,0,0,0-46.69-20.44l0,0,1.34,3c1,.11,1,.11,19.61,12.52a24,24,0,0,0-5.76-1c7,4.45,22.1,13.69,22.25,13.79l-2.67.94a21.58,21.58,0,0,0,6.12,2.41c-2.93.57-2.93.57-15.15-4.71a7.17,7.17,0,0,0,3.74-2.55c-2.75-2.37-2.75-2.37-31.39-6a9.09,9.09,0,0,0,.24,5.65l-1.46,2.54a25.46,25.46,0,0,0,4.62,4.54c-.11.94-.25,2.2-.35,3.14,4.93,1.59,4.93,1.59,16.69,18.42-3.69,12.95,15,24.78,21.78,25a21.92,21.92,0,0,0,0-5.89c.59,0,.59,0,15.26,7.05.63,1.93,1.5,4.5,2.18,6.41-.41-.21-.41-.21-10.34-9.09-2.3,9.42,9.35,11.44,10.19,19.2a54.5,54.5,0,0,0-3.64,4.63c2.17,4.86,4.63,10.36.35,23.08l-2.85-.67a15,15,0,0,1-1.57,5.57,14.19,14.19,0,0,0-5.42,1.95c6.79,9.17,24,8.44,23.57,24.44-8,3.58-17.77,1.38-24.79,7.89,8.49,9.92,7.55,24.62,17.19,34,18.48-2.71,3.69,26.17,6.69,39.05-3.51,3.73-5,5.27-8,14.63-4.32,13.55-9.36,26.86-13.43,40.5-5,16.81,8.46,33.07,1.47,49.93l22.68,41.31c10,3.69,17.43,11.57,26.64,16.56,7-8,45.48-26.92,49.38-27.54,3,4.31,3.51,6,4.31,11.69,7.78-4.08,7.78-4.08,11.77-4,.41,1.39,1.35,3.17,1.35,4.61l-1.31,57.17c-.49,7.88-4.44,19.31-5.23,21.52-.91,2.53-22.55,62.45-59.55,98.29h0c11.8-7.39,33.95-31.38,45.2-45.27,19.18-25.9,20.33-27.45,30.23-44.82,15.2-29.7,15.79-30.86,22.52-49.19,10.28-32.35,10.68-33.62,14.27-52.82,4.76-33.7,5.15-36.45,5.39-59.19C821.32,498.6,821,485,820.06,474.88ZM732.93,304.13c1.22,1.63,1.57,2.41,1.56,3.44a11.4,11.4,0,0,1,5,3.41c-.73-2.19-2.67-8,3.17-5.11,1.38.69,8.29,5.36,10.47,8.9,4.89,7.94.92,7.58-.42,7.29a13.31,13.31,0,0,1-2.86-1.19c-1,.95-.81,2.79-.42,5.95s.27,4.12-.29,5.1c-5,5.42-19.51-27.77-19.64-28.13C731.45,305.13,733,306.19,732.93,304.13Zm18.86,40.53c-.16-.21-.34-.44-.58-.7C751.3,344,751.34,344,751.79,344.66Zm-74.38-59.59c-.12,3.52-.95,4.59-5.51,1.58-.95,1.2,0,3.05-1.44,4.1-1.71-2.9-2.68-6.24-5-8.77,1.66.3,2.26,2,3.62,2.7.44-.43.17-1,.37-1.53.45-.06.53-.07,1.4.61-.36-1.83-2.15-2.65-3-4.18l.5-.22c1.14-.75,1.47-1.5,1.41-3.22-3.54-2.46-6.37-5.72-9.63-8.51.24-5.93-3.74-7.94-7.12-8.58-3.82-.72-4.41-.83-9.45-6-2.63-2.72-3-6.78-5.6-9.5-2-2.12-5.75-2.28-6.55-5.77-.7-3.06,5.18.07,5.25.14s5.38,7.68,5.24,8.1a1.92,1.92,0,0,1-.58.16c14,10,14,10,14.79,10.65-.26.53-.87.49-1.29.75-.19,1.4,4.35,2.17,5.85,1,2.4-1.87.49-7.73,4.5-7.28a10.39,10.39,0,0,1,.91,1.79c.26,1,.28,1.45-1.05,3.81a4.56,4.56,0,0,0,.18,4.73c1.42,2.72,3.46,3.85,3.83,3,.28-.65-.48-1.32.05-2,.12-.13.46-.22,1.46.14q2.56,2,5.08,4.07a2.88,2.88,0,0,1,.2.65l-.22.25c-1.72-.2-3-2.07-5-1.35a.49.49,0,0,0-.2.56A13.15,13.15,0,0,0,672,269c2.41,2.91,6,4.63,8.24,7.69,1.38,1.83,1.3,4.18,2.2,6.19C677.8,280.33,677.51,282,677.41,285.07Zm103.35,95.45c-.57,1.48-.23,3.23.31,5.55-3.8.84-7.77.36-11.54,1.44-4.63-6.95-6.23,1.57-6.24,1.66-.22,1.41-.22,1.41,4,10.74-2.6,2.46-7.94,5.25-14.53-3.74-2.93-.21-5.58,1.7-8.55,1.13-2.67-.52-3.36-1.35-5.42-3.83-.88.41-.63,1.65-1.5,2.06-1.81-2.74-.55-6.1-1.79-9,.71.49.71.49,1.42,2.95a2.84,2.84,0,0,0-.58-3.08c-1.23-1.71-3.34-2.45-4.61-4.13s-.15-3.82-.7-5.67c-4.64-.84-4.64-.84-5.08-1.27-3,3.72-4,5-10.42,8-14.07,6.6-15.24,8.49-19.06,17.41-3.62-.49-6.35,2.91-10,2.29-2.49-.43-3.64-2.4-5.09-4.89,1.45-1.16,3.42-2.64,4.93-3.71,10.57-7.5,8.85-12.94,5.74-18.79-2.67-5-1.77-6.84,3.23-17.08-1.17-2.27-3.08-4.06-4.2-6.36,2.74-2.19,6.64-2.33,9.06-5.09,1.9-2.17,1.75-3.52,1.37-6.78,1.69-1.05,3.3.34,5,.15,5.64,6.08,7.35,7.92,15.4,10.49,5.82,1.85,9,2.87,14.54,9.39,0,0,1.38,2.73,0,5-1.32,2.08-4,2.2-5.58,3.9,2.4,3.52,6.71,3.14,10,4.9.19-2.85-2.18-4.64-2.93-7.1,1.93-2.49-.86-5.4.68-7.93h0c-1.45-2.88-6.86-3.72-5.33-8,1.16,0,1.47.05,4.51,2.06-2.55-4.84-8.46-5.47-11.76-9.36a2.67,2.67,0,0,1-.92.94c-6.53.87-8.12-7.36-14-7.62-3.27-4.44-4-5.58-3.49-7.8,1.47.72,2.49,2.21,4.24,2.41a3,3,0,0,0,.5-1c1,.85,2.25,2.06,3.31,2.83,5.1,3.7,11.8,3.77,16.89,7.48,4.52,3.3,5.92,9.23,10.48,12.49a41.88,41.88,0,0,0,5,3.15c.78,3.37,3.74,5.32,5.33,8.16a4.62,4.62,0,0,1,.49-1l2,.25.35-.52c-.9-1.43-2.24-2.52-3.06-4l.5.48.57-.07a3.22,3.22,0,0,0-1.66-2.71c.08-.15.17-.34.24-.49,2.54-.6,1.33-2.16,1.27-2.23-3-3.74-7.54-5.69-10.54-9.4,0-.16.08-.36.11-.52.78-.11,1.55.21,2.32-.05,0-1.73-1.75-2.35-2.45-3.64.19,0,.42.06.61.06,1.44,0,1-2.15,2.46-2.21.94-.05,1.38.85,1.92,2,0,.06,3.72,6.4,4,6.57.14-.15.32-.35.45-.51a4.3,4.3,0,0,0-.68-1.73c.54.73,1.41,1.95,2.89,4a5.18,5.18,0,0,0-1.18,0c-.15.83-.21,1.18,1.21,2.34a2.86,2.86,0,0,0,1.09-.43c2.4.82,5.08,6.74,5.09,6.8-.24-2.36,3.34-.41,4.94-1,.16-.92.22-1.3-.91-3.93,3.24,1.67,3.24,1.67,3.86-7.34l2.13,3.75c9,16,11.3,22.66,13.17,28C783.63,378.93,781.41,378.81,780.76,380.52Z">
	</path>
	<path class="cls-3"
		d="M371.68,522.18c-.59,5.49,8.4,4.64,10.48,3a2.61,2.61,0,0,0,.47-.47c.05-.07.1-.17.14-.24a7.84,7.84,0,0,0-5-2.31C375.76,522.07,373.72,522.26,371.68,522.18Z">
	</path>
	<path class="cls-3"
		d="M343.19,491.65l.09-.13c-.91-.47-1.49-1.47-2.6-1.62a4,4,0,0,0-.69,0l-.63,4.4C341.21,494.73,341.91,493.64,343.19,491.65Z">
	</path>
	<path class="cls-3"
		d="M566.12,256.62c-2.62.24-2.62.24-10.28,5-2-2.75-2.73-2.81-6-3.06,0,.22,0,.51,0,.74-.45.91-1.51,1.32-1.91,2.27a3.12,3.12,0,0,0,.24,1.76c1.39.18,2.66-.73,4.06-.5,1.21.2,1.78.88,1.13,1.36-.81.6-1.85-.22-2.64.43-.35.28.06,1,.31,1.48,3.37-.49,4.43-.53,6.32,1.59-1.11.22-1.45.28-.62,1.66,11,2,16-1.4,20-7.07a26.61,26.61,0,0,1-1.36-2.46C573.5,256.88,566.79,256.56,566.12,256.62Z">
	</path>
	<path class="cls-3"
		d="M327.7,466.44c.78,1.8,1.13,2.38,2,2.73a9.07,9.07,0,0,0,1.1-2.32c1.29-4.59-3.43-6.82-8-9-.07.2-.15.47-.21.67-.8,3.08-.46,4.76,1.26,6.22C326,462.79,326.7,464.11,327.7,466.44Z">
	</path>
	<path class="cls-3"
		d="M352.49,502.94c-.13-1.56,1.18-2.55,1.52-3.92a1.33,1.33,0,0,0-.84-1.61l0,.14c-.18.48-.58.42-1.78,0-2.32-.88-3.36-.89-3.75,1.37.69.39,1,.66,1.56,1.89S350.35,503.21,352.49,502.94Z">
	</path>
	<path class="cls-3"
		d="M342.88,521c5.14.2,7,.86,8.21,4.33,3-4.74,3.74-4.62,15.88-2.52.13-1.49.25-3,.39-4.47-8.21-4.77-13.64-7.93-19.86-8.64a12.47,12.47,0,0,0-5.75.77c4.56,1.65,2.67,3.42,2.13,3.56a3.67,3.67,0,0,1-.74,0,4.15,4.15,0,0,0,.15,2.2c.8,1,2.09,1,3.06,1.64-1.71,1.17-2.91.8-5.46-.39a9,9,0,0,0-5.15-1.17C336.1,520.06,337.84,520.76,342.88,521Z">
	</path>
	<path class="cls-3"
		d="M319.6,467.93c-6.65,21.26,12,26.2,12.76,26.4.94-1.06,1.19-1.35.55-2.4-1.27-2.1-.84-4,.87-4,3.51.12,3.51.12,3.63,0a1.79,1.79,0,0,0,.2-.26c.48-.84-1.3-3.19-1.32-3.21-.58-.43-1.57-.33-3.28-.14-.75-2.84-1.95-5.54-2.87-8.34,2.15.27,2.76,1.14,3.12,1.65.65-3.38.39-3.73-2.14-7.08q-2.1,4.68-3.69,1.61c-.5,3.65-.5,3.65,2.24,11.61-.9,1.31-1.76,1.69-3.69,1.63a21.83,21.83,0,0,0-.23-8.33c-.69-4.17-.44-5.57,1.48-8.31-2.66.1-4.65-1.73-7.06-2.38Z">
	</path>
	<path class="cls-3"
		d="M320,514.21a5.29,5.29,0,0,0-3.43,1.2c1.69,3.73,7.85,6.3,10.55,3.53.14-.15.3-.37.42-.52-1.76-1-3.32-2.38-5.1-3.37A5.42,5.42,0,0,0,320,514.21Z">
	</path>
	<path class="cls-3"
		d="M315.72,481.1a2.65,2.65,0,0,0-2-3.42c-1.44-.07-1.8,1.29-1.92,1.74a4.29,4.29,0,0,0,3.83,1.85Z"></path>
	<path class="cls-3"
		d="M621.09,273.51l-.16-.18c-.71-.82-2.1-2-2.79-1.81a.43.43,0,0,0-.19.14q1.68,1.81,3.34,3.67C622.41,275.45,621.69,274.25,621.09,273.51Z">
	</path>
	<path class="cls-3"
		d="M329,507.3c3.31.55,6.17,1,8.52.61.29-.05.67-.15.95-.21-3.39-7.72-14-9.26-15.74-18.37-15.12-7.6-15.12-7.6-20.37-8.4-6.25-.2-8.4,1.91-10.87,6.72,2.35-.09,3.88.9,6.2,2.51,4,2.8,6.36,3.7,10.58-.12,6,4.95,9,8.94,12.75,17.09,2.13-.54,3.67-.51,7.87.15Z">
	</path>
	<path class="cls-3"
		d="M616.35,288a4.1,4.1,0,0,0-.44-2.56c-.25-.5-.66-.87-.86-.77-.31.29-.23.8-.59,1.06a1.07,1.07,0,0,1-.93,0c1.28,1.55,3,3.68,1.3,3.52l-.34-.05c1.35,1.72,2.25,2.55,3.21,2.95C616.34,290.19,616.25,289.34,616.35,288Z">
	</path>
	<path class="cls-3"
		d="M634.88,312c.1-.71.18-1.33-.89-2.73s-2.74-2.42-3.78-3.94c.17-.77.88-1.41.59-2.3-.55-1.7-3.85-4.33-7.35-3.36-1.21.41-2.37,1-3.57,1.37,1.66,3.56,2.35,5-2,5.18.69,1.08.69,2.46,1.52,3.49a6,6,0,0,0,1.76,1.26,6.21,6.21,0,0,1,2.93,2.54c-.81,1.46-1.71,3.12.26,5.77a6.47,6.47,0,0,0,4.24.27c2.79-1,3.93-4.42,7.12-4.8C634.86,313.36,634.72,313.1,634.88,312Z">
	</path>
	<path class="cls-3"
		d="M660.85,312.71c-1-.95-1-.95-4.23-5.74-2.18-3.19-2.4-3.53-5.58-2.47-3.83-3.58-3.83-3.58-14.27-9.26a45.92,45.92,0,0,1-4.9-2.94,4.65,4.65,0,0,1-.46-1.59,12.41,12.41,0,0,0-2.44-5.29c-1.91.08-3.64,1.88-5.7.63-.08-3.39-.1-4.1-2.94-6.71l.34.72c.23,1.1.18,1.57-1.21,2.88-1.89,1.77-2.09,2.77.17,5.92-1.11-.57-2-.69-2.53-.36a2.13,2.13,0,0,0,.84,1.71c.24.2.74.14,1,.32,2,1.45,3,4.29,5.87,4.59-1.67.59-1.93,1-.64,3,.78-.08,1.07-.88,1.71-1.17.36.36.38.39.77,1.51,1,.14.59-1.34,1-2,2.19.78,2,3.42,3.67,4.64,1.11-.29,2.21-.57,3.3-.87,1.75,1.89,4,3.23,5.52,5.39-1.41.39-2.86.77-4.32,1.15,1.33,2.32,4.09,3.22,5.45,5.51-2,1.18-2.3,1.36-2.42,2.61a3.47,3.47,0,0,0,1.62,1c1,.15,1.88-.45,2.86-.33,1.44,2.63,0,5.41.39,8.09C649.15,319.65,656.89,319.1,660.85,312.71Z">
	</path>
	<path class="cls-3"
		d="M340,359.15a12,12,0,0,0-1,2.38c-.21,1,.41,1.05,1,1h0c.09,0,.28,0,.67-.84.52-1.1,1.68-4.74.59-5.14h0C340.43,358.24,340.43,358.24,340,359.15Z">
	</path>
	<path class="cls-3"
		d="M665.86,268l-.23-.22a.85.85,0,0,0-.43.2c-.61.63.56,2.1,3.92,4.92C669.43,272.47,669.42,271.46,665.86,268Z">
	</path>
	<path class="cls-3"
		d="M480.15,647c-4.09-11-16.11-16.89-18.45-29-23-14.16-23-14.16-31.41-11.14-10.72-7.73-18-18.88-27.67-27.64l1.93-3.35-3.09-1.49c-.32,1.13-.76,2.64-1.08,3.78-3.46-4.23-9.43-4.39-13.16-8.16a13.49,13.49,0,0,1-3.4,6.24c-10.41-3.81-10.41-3.81-18.66-4-1.13-5.88-7-8-9.87-12.49a21,21,0,0,1-3.2,6.47,46.51,46.51,0,0,1-2-7.43c-.23,0-23,3.14-24.45,14.78a24.65,24.65,0,0,0-5.62,4.71c-18.25-6.71-18.25-6.71-20.74-5.82-11.8-6.26-14.33-24.86-5.09-37.54.1-1.12.19-2.24.3-3.35-3.05-3.7-3.05-3.7-26-11.78,6-10.07,7.87-21.87,13.48-32.09-5.37-3-18.13-8-20.64,8.33-2.12.75-2.12.75-13.6,2.84-17-19.11-2-70.4,19.53-66.92,5.22.84,10.15,4.29,13.74,6.8,8.54-4.66,17,1,25.5.2C309,468.53,309,468.53,309,468.7c-1.78,1.28-4.1,3.08-5.81,4.45,17.72,4.18,14.84-17.74,13.9-24.94-1.15-8.73-1.15-8.73,17.45-28l3.78.68.58-.69c-.86-.36-1.7-.75-2.54-1.17s-.09-1.49.65-1.12c.91.46,1.83.87,2.76,1.25,20.51-24.33,20.65-24.59,26.48-35.38,2,0,4.72-.14,6.73-.22.52-.82,1.22-1.9,1.74-2.71a20.26,20.26,0,0,1,6.32.94l3-1.76-2.32-2.59c2.58-5.5,5.5-11.73,25.79-13.8l-1.06.5a18,18,0,0,0-3.15,6.76,19.66,19.66,0,0,0,7.75-1.91c28,15.54,26.88-9.63,25.86-17.72,8.44.68,8.44.68,11.64,1.32l.84,3.1-.12,1.14a21.78,21.78,0,0,0,6.4-3.36l.87,3.7,3.19,1.14a17.78,17.78,0,0,0,4-6.64l-2.88-1.55c1.82-5,1.82-5-10.95-10.89a25.74,25.74,0,0,1,3.5-5.89l-4.85.09c-4.82,5.35-7.81,12.18-13.59,16.75-5.83-11.63-16.52-3.54-22.25,5.92a28.49,28.49,0,0,1,1.93-7.6l-3.23-.19a26.39,26.39,0,0,0,6.31-4.25c-.6-.85-1.4-2-2-2.84-5.71-1-7.63-1.29-16.61,2.67a11.5,11.5,0,0,1,6.11-4l1.38.09h0l2.41-3c37.61-3.65,37.61-3.65,44.91-8.15q.55-3.64,1.13-7.21c-13.26-8.35-13.26-8.35-20-36.8-7.7,7.9-9.39,8.11-13.92,8.67-2.63-2.9-3.61-4-.58-9.87-6.15-9.57-6.15-9.57-18-11.4-9.46,13.85-9.46,13.85-12,15.7,5.33,15.22-13.63,18.6-13.83,18.61-3.06,10.37-3.06,10.37-9.27,15.45l-2.16-3.21a11.62,11.62,0,0,0,3.42-5.86L366.31,310c1.13-1.92,2.73-4.42,4-6.24-7.1-4.26-9.93-12.78-17-17.05-.66-3.92.7-7.73.69-11.62,2.35-2.34,2.35-2.34,42.33-20.76l-1.54,1.31a69.75,69.75,0,0,1-8.93,6.94l1.51,3.09a22.06,22.06,0,0,0,6.26-1.77,20.67,20.67,0,0,0,6.59,2.42c.37-4.31-1.56-8.52-.53-12.85v3.2c3.36-3.47,9-3.58,11.8-7.83l3,1.27c0,.09-2.13,8.88-6.09,12.71,12.05,6.41,12.05,6.41,13.06,11.4,3.57.85,6.66,2.85,10,4.21.29-1,.69-2.36,1-3.37-.5-.88-1.15-2.05-1.65-2.92a21.47,21.47,0,0,1,5.69,3.76c1.56-1.25,3.63-2.94,5.17-4.22-3.85-10.49-3.85-10.49-3.84-11.94a16.57,16.57,0,0,1,5,5.56c3.59-.11,3.59-.11,9.72-4.88-2.26-4.36-6.69-6.91-9.16-11.09l2.14-2.52c-.57-2.33-.57-2.33-8.85-13.05.31-1.08.73-2.51,1-3.6-.24-.11-24.36-10.32-28.92,7.17l2.46,2.25a34.74,34.74,0,0,1-5.88,5.68l-3.14-.86c.52-.85,1.22-2,1.75-2.85-3.1-7.91-2-8.36,15.78-15.95-3.89-3.29-3.89-3.29-19.87-.74-.51.9-1.2,2.09-1.72,3l2.61,2c-4.15,4.09-4.15,4.09-12.12,5.55,4.53-11.43,4.53-11.43,13-14.32L399,218.92c-2.31,1.14-5.32,2.8-7.52,4.13l3.65-2.5-1.73-2.86a51,51,0,0,1,4-6.47l-.51-1.07c-2.47-.81-5.53-1.82-17.94,4.25l3.17,2.35c1.43-.31,3.34-.77,4.8-.95-5.81,1.87-5.81,1.87-9.31,4.13.09,1,.22,2.27.31,3.25-6.75-.52-7.29.77-9.31,5.58a16.42,16.42,0,0,1,.21-6.55l-2.62-1.91,2.94-1.32,2-1h0l-3.29.8c.73-.75,1.71-1.73,2.44-2.47a21.13,21.13,0,0,0-6.52-4.18c6.29-5.36,13.52-9.43,20-14.54-4-.77-4-.77-20.8,5.81.78-.4,1.59-.8,2.43-1.19l3-1.17c-13.32,4.32-36.21,16.87-44.82,21.59l-.09,0c-3.37,2-7.82,4.76-11.15,6.83l.73-.44,3.6-1.82c1.86-1.13,1.86-1.13,1.86-1.14h0l3.24-1.66c-1.44,1-3.17,2-4.89,3l3.42-.55c-9,8.34-17.63,17.2-27,25.23,2-1.44,4.72-3.38,6.72-4.86C286,261,286,261,285.78,261.87q-3,2.31-5.89,4.67c-65.21,93.4-65.21,93.4-68.13,100.55-5.59,13.69-1.06,28.8-6,42.58-7.6,21.34-.47,39.19-.38,39.32,4.47-50.76,4.47-50.76,5.78-54.6l2.58,2.59C196.15,479.4,227.61,504.68,238,513l3.45-1.32C252.58,520,278,553.8,278.18,554.1Q278,558,277.84,562c7.66,3.77,10.84,12.82,19,16-.1,1-.23,2.24-.32,3.19a30.36,30.36,0,0,1,6,3c.61-.8,1.44-1.87,2.05-2.68l-1.66-3a15.83,15.83,0,0,1,5.72-3.45,36.6,36.6,0,0,0,3.68,5.47c5.9,26,5.9,26-3.83,42.35l-3.26.65c-.56,6.3-2.53,12.44-2.26,18.84h0a26.32,26.32,0,0,1,5.44,5l-3.6,1.85c-2.61,8.43.31,13.79.34,13.84,8.93,15.25,25.26,25.16,30.91,42.78.13.38.13.38,30.21,24.66,27,21.79-3.82,67.94,35.58,84.52-.65-.78-1.51-1.83-2.17-2.61a17.31,17.31,0,0,1,5.1,4.65l-3.62-.77c5.56,5.44,5.56,5.44,7.79,6.16.66,1-.08.9-.83.78a84.16,84.16,0,0,0,38.16,11.88c-12.6-4-12.6-4-15.95-10.33l-3.13-.73a16.76,16.76,0,0,0,1.44-6.69l3.24.66a15.55,15.55,0,0,0-6-2.35,23,23,0,0,1,7.54-1.62c.15-1.06.33-2.46.47-3.51,10.55-.89,10.63-1,15-4.26L447.6,802c18.68-8.19,18.68-8.19,31.76-24-1.29-10.68-1.29-10.68,34.9-20.37,3.07-5.33,7.31-9.88,10.27-15.29,1.11-3,2-3,2.93-3,.76-19.5,16.56-31.23,24.32-47.12,3.92-8,2.15-13.28-.31-20.54C524.89,671.55,505.34,651.11,480.15,647Zm-46.8-404.32a1.54,1.54,0,0,1,.65.07c.44.14.84.38,1.28.54l-.16.15a3,3,0,0,1-2.14,1c.44-.52,1.16-1.4.6-1.31a4.41,4.41,0,0,0-1.13.51C432.6,243.28,432.85,242.74,433.35,242.69Zm-85,126c-4.08,3.17-8.6,3.51-14.84,4a9,9,0,0,1,5.11-4.13,12.6,12.6,0,0,1,3.44-.45c2.24,0,4.47.28,6.71.26Zm-11.46-20.35c4-3,8.22-1.75,10,.08-1,1.67-2.74,0-4.1.17-.39,1.06-.06,1.35,1.54,1.38s2.31.16,1.89,1.38c.57-.14.57-.14,1.9-2.68,2.4,0,2.7,1.47,2.86,3.57s.29,2.51.92,3.3c-.11.17-.26.42-.38.59-1.72,2.39-3.94,1.86-4.14-.3a6.35,6.35,0,0,1,.07-1.15c-3,1.6-5,5.28-6.65,9-1-.27-1.87.8-2.91.46a12.5,12.5,0,0,0,.83-4.82,10.28,10.28,0,0,1,1.44-5.11c-2.22.83-1.48,3.16-2.35,4.66l-.45.11a1.89,1.89,0,0,1-.6-.31C340.42,352.6,339.38,351.36,336.88,348.38Zm26.53,15.35c-.09.18-.2.42-.3.6-2.42,4.12-7.94,2.55-11.58,1.5a11,11,0,0,0-3.61-.7C351.68,361.92,356.16,361.52,363.41,363.73ZM342.24,233.58c1.91-.9,5.2-2.3,5.68-1.55,2.53-1.71,1.44-1.92.65-2.08s-1.16-.22-1.21-.54c2.44-.27,3.9,0,7.41.77-1.1.47-2.4.23-3.44.93-.34.23-1.36,1-.16,1.5,1.45.58,1.64.65.31,1.22-2,.83-2.21.39-2.42,0-.38-.67-1-.58-4.06,1.36-.13-.33-.33-.35-1.29.15.17-.34.77-.52.77-.52.33-.09,2.39-1.44,2.34-1.76-.2-.09-.44-.06-1.86.33C343.38,233.85,342,234.23,342.24,233.58ZM335.46,251c2.51.34,4.06-.35,6.8-2.13-.35,1.07.07,1.3,1.82,2.25l-.85.31a17.46,17.46,0,0,1-4.83.79,15.64,15.64,0,0,0-5.66,1.17c2.33-1.6,1.41-2,.9-2.1a2.56,2.56,0,0,0-1.64.31A4.08,4.08,0,0,1,335.46,251Zm-4.73.05a1.16,1.16,0,0,1-.61.73c-2.51,1.4-3.36,1-4,.49l-.07-.06C329.17,250.91,331,250.14,330.73,251Zm8.55,80.5c-.86,1.82-2.48,5.21,2.06,5.56a7.49,7.49,0,0,0-1.21,4,3.91,3.91,0,0,1-1,2.5,12.25,12.25,0,0,1-1,.91c.15-3.42-2.44-3-8.11-1.92.05-1.27-1-2.26-.85-3.56.14-1.1.19-1.16,1.6-2.46-3.33.36-6.42,2.18-9.9,1.68a4.66,4.66,0,0,1-2.49-1.9C327.79,331.51,331.48,330.06,339.28,331.53Zm-12.54,18.62a2.38,2.38,0,0,0-.52-.71c0-.05,0-.05,1.86-3.14a2.91,2.91,0,0,0,1,.46,7.71,7.71,0,0,0,3.44-.21c1.73-.34,2.59-.4,3,.49l-.5.41c-7.13,5.74-10.7,8.62-13.22,18.4-2.28-1.06-2.61,3-4.93,2C316.67,362.62,322.43,353.13,326.74,350.15Zm22.51,227.61c0,.61-.08,1-.13,1.52-3.09,0-5.06-4.17-3.55-6.12,1.78.61.45,3.23,2.4,3.74h.27a2.67,2.67,0,0,0-.85-2.94,2.63,2.63,0,0,1-.84-2.93C347.82,571.72,349.48,573.16,349.25,577.76Z">
	</path>
</svg>